# xmcd CD database file
#
# Track frame offsets:
#	150
#	19993
#	35650
#	50907
#	69119
#	87172
#	102447
#	121755
#	136196
#	151724
#
# Disc length: 2281 seconds
#
# Revision: 5
# Processed by: cddbd v1.5.1PL0 Copyright (c) Steve Scherf et al.
# Submitted via: CDex 1.51
#
DISCID=7b08e70a
DTITLE=DREAMS COME TRUE - LOVE OVERFLOWS -ASIAN EDITION-
DYEAR=2004
DGENRE=JPop
TTITLE0=THIS IS IT! YOU'RE THE ONE! I KNEW IT! - ENGLISH VERSION-
TTITLE1=24/7 -ENGLISH VERSION-
TTITLE2=FLOWERS -ENGLISH VERSION-
TTITLE3=ONE YESTERDAY -DCT MIX-
TTITLE4=THE FIRST DAY WITHOUT YOU
TTITLE5=IT'S ALL ABOUT LOVE
TTITLE6=CHRYSALIS OR BUTTERFLY
TTITLE7=BEFORE NOW -ENGLISH VERSION-
TTITLE8=LOVE OVERFLOWS -ENGLISH VERSION DCT MIX-
TTITLE9=LOVE LOVE LOVE -ENGLISH VERSION-
EXTD=YEAR: 2004
EXTT0=
EXTT1=
EXTT2=
EXTT3=
EXTT4=
EXTT5=
EXTT6=
EXTT7=
EXTT8=
EXTT9=
PLAYORDER=
